%FSLAX45Y45*%
G04 Gerber Fmt 4.5, Leading zero omitted, Abs format (unit mm)*
G04 Created by KiCad (PCBNEW (6.0.0)) date 2022-11-09 00:21:32*
%MOMM*%
%LPD*%
G01*
G04 APERTURE LIST*
%TA.AperFunction,Profile*%
%ADD10C,0.100000*%
%TD*%
%ADD11C,0.200000*%
%ADD12C,0.020000*%
%ADD13C,0.100000*%
G04 APERTURE END LIST*
D10*
X13558000Y-10246000D02*
X13558000Y-10046000D01*
X16867000Y-8255000D02*
X16867000Y-10246000D01*
X16517000Y-10246000D02*
X16517000Y-10046000D01*
X13208000Y-8255000D02*
X16867000Y-8255000D01*
X16517000Y-10046000D02*
X13558000Y-10046000D01*
X13208000Y-8255000D02*
X13208000Y-10246000D01*
X16867000Y-10246000D02*
X16517000Y-10246000D01*
X13558000Y-10246000D02*
X13208000Y-10246000D01*
D11*
D12*
X13350400Y-8753000D02*
X13370400Y-8773000D01*
X13370400Y-8753000D02*
X13350400Y-8773000D01*
X13350400Y-9007000D02*
X13370400Y-9027000D01*
X13370400Y-9007000D02*
X13350400Y-9027000D01*
X13515500Y-8626000D02*
X13535500Y-8646000D01*
X13535500Y-8626000D02*
X13515500Y-8646000D01*
X13515500Y-8880000D02*
X13535500Y-8900000D01*
X13535500Y-8880000D02*
X13515500Y-8900000D01*
X13515500Y-9134000D02*
X13535500Y-9154000D01*
X13535500Y-9134000D02*
X13515500Y-9154000D01*
X13680600Y-8753000D02*
X13700600Y-8773000D01*
X13700600Y-8753000D02*
X13680600Y-8773000D01*
X13680600Y-9007000D02*
X13700600Y-9027000D01*
X13700600Y-9007000D02*
X13680600Y-9027000D01*
X13769500Y-8880000D02*
X13789500Y-8900000D01*
X13789500Y-8880000D02*
X13769500Y-8900000D01*
X13858400Y-8753000D02*
X13878400Y-8773000D01*
X13878400Y-8753000D02*
X13858400Y-8773000D01*
X13858400Y-9007000D02*
X13878400Y-9027000D01*
X13878400Y-9007000D02*
X13858400Y-9027000D01*
X14023500Y-8626000D02*
X14043500Y-8646000D01*
X14043500Y-8626000D02*
X14023500Y-8646000D01*
X14023500Y-8880000D02*
X14043500Y-8900000D01*
X14043500Y-8880000D02*
X14023500Y-8900000D01*
X14023500Y-9134000D02*
X14043500Y-9154000D01*
X14043500Y-9134000D02*
X14023500Y-9154000D01*
X14188600Y-8753000D02*
X14208600Y-8773000D01*
X14208600Y-8753000D02*
X14188600Y-8773000D01*
X14188600Y-9007000D02*
X14208600Y-9027000D01*
X14208600Y-9007000D02*
X14188600Y-9027000D01*
X14366400Y-8753000D02*
X14386400Y-8773000D01*
X14386400Y-8753000D02*
X14366400Y-8773000D01*
X14366400Y-9007000D02*
X14386400Y-9027000D01*
X14386400Y-9007000D02*
X14366400Y-9027000D01*
X14531500Y-8626000D02*
X14551500Y-8646000D01*
X14551500Y-8626000D02*
X14531500Y-8646000D01*
X14531500Y-8880000D02*
X14551500Y-8900000D01*
X14551500Y-8880000D02*
X14531500Y-8900000D01*
X14531500Y-9134000D02*
X14551500Y-9154000D01*
X14551500Y-9134000D02*
X14531500Y-9154000D01*
X14696600Y-8753000D02*
X14716600Y-8773000D01*
X14716600Y-8753000D02*
X14696600Y-8773000D01*
X14696600Y-9007000D02*
X14716600Y-9027000D01*
X14716600Y-9007000D02*
X14696600Y-9027000D01*
X14874400Y-8753000D02*
X14894400Y-8773000D01*
X14894400Y-8753000D02*
X14874400Y-8773000D01*
X14874400Y-9007000D02*
X14894400Y-9027000D01*
X14894400Y-9007000D02*
X14874400Y-9027000D01*
X15039500Y-8626000D02*
X15059500Y-8646000D01*
X15059500Y-8626000D02*
X15039500Y-8646000D01*
X15039500Y-8880000D02*
X15059500Y-8900000D01*
X15059500Y-8880000D02*
X15039500Y-8900000D01*
X15039500Y-9134000D02*
X15059500Y-9154000D01*
X15059500Y-9134000D02*
X15039500Y-9154000D01*
X15204600Y-8753000D02*
X15224600Y-8773000D01*
X15224600Y-8753000D02*
X15204600Y-8773000D01*
X15204600Y-9007000D02*
X15224600Y-9027000D01*
X15224600Y-9007000D02*
X15204600Y-9027000D01*
X15255400Y-8562500D02*
X15275400Y-8582500D01*
X15275400Y-8562500D02*
X15255400Y-8582500D01*
X15382400Y-8753000D02*
X15402400Y-8773000D01*
X15402400Y-8753000D02*
X15382400Y-8773000D01*
X15382400Y-9007000D02*
X15402400Y-9027000D01*
X15402400Y-9007000D02*
X15382400Y-9027000D01*
X15547500Y-8626000D02*
X15567500Y-8646000D01*
X15567500Y-8626000D02*
X15547500Y-8646000D01*
X15547500Y-8880000D02*
X15567500Y-8900000D01*
X15567500Y-8880000D02*
X15547500Y-8900000D01*
X15547500Y-9134000D02*
X15567500Y-9154000D01*
X15567500Y-9134000D02*
X15547500Y-9154000D01*
X15712600Y-8753000D02*
X15732600Y-8773000D01*
X15732600Y-8753000D02*
X15712600Y-8773000D01*
X15712600Y-9007000D02*
X15732600Y-9027000D01*
X15732600Y-9007000D02*
X15712600Y-9027000D01*
X15769750Y-8568850D02*
X15789750Y-8588850D01*
X15789750Y-8568850D02*
X15769750Y-8588850D01*
X15890400Y-8753000D02*
X15910400Y-8773000D01*
X15910400Y-8753000D02*
X15890400Y-8773000D01*
X15890400Y-9007000D02*
X15910400Y-9027000D01*
X15910400Y-9007000D02*
X15890400Y-9027000D01*
X16055500Y-8626000D02*
X16075500Y-8646000D01*
X16075500Y-8626000D02*
X16055500Y-8646000D01*
X16055500Y-8880000D02*
X16075500Y-8900000D01*
X16075500Y-8880000D02*
X16055500Y-8900000D01*
X16055500Y-9134000D02*
X16075500Y-9154000D01*
X16075500Y-9134000D02*
X16055500Y-9154000D01*
X16220600Y-8753000D02*
X16240600Y-8773000D01*
X16240600Y-8753000D02*
X16220600Y-8773000D01*
X16220600Y-9007000D02*
X16240600Y-9027000D01*
X16240600Y-9007000D02*
X16220600Y-9027000D01*
X16284100Y-8549800D02*
X16304100Y-8569800D01*
X16304100Y-8549800D02*
X16284100Y-8569800D01*
X16311151Y-8954549D02*
X16331151Y-8974549D01*
X16331151Y-8954549D02*
X16311151Y-8974549D01*
X16398400Y-8753000D02*
X16418400Y-8773000D01*
X16418400Y-8753000D02*
X16398400Y-8773000D01*
X16398400Y-9007000D02*
X16418400Y-9027000D01*
X16418400Y-9007000D02*
X16398400Y-9027000D01*
X16563500Y-8626000D02*
X16583500Y-8646000D01*
X16583500Y-8626000D02*
X16563500Y-8646000D01*
X16563500Y-8880000D02*
X16583500Y-8900000D01*
X16583500Y-8880000D02*
X16563500Y-8900000D01*
X16563500Y-9134000D02*
X16583500Y-9154000D01*
X16583500Y-9134000D02*
X16563500Y-9154000D01*
X16728600Y-8753000D02*
X16748600Y-8773000D01*
X16748600Y-8753000D02*
X16728600Y-8773000D01*
X16728600Y-9007000D02*
X16748600Y-9027000D01*
X16748600Y-9007000D02*
X16728600Y-9027000D01*
D13*
X13436500Y-8455000D02*
G75*
G03*
X13436500Y-8455000I-50000J0D01*
G01*
X13436500Y-9840000D02*
G75*
G03*
X13436500Y-9840000I-50000J0D01*
G01*
X13690500Y-8455000D02*
G75*
G03*
X13690500Y-8455000I-50000J0D01*
G01*
X13690500Y-9840000D02*
G75*
G03*
X13690500Y-9840000I-50000J0D01*
G01*
X13944500Y-8455000D02*
G75*
G03*
X13944500Y-8455000I-50000J0D01*
G01*
X13944500Y-9840000D02*
G75*
G03*
X13944500Y-9840000I-50000J0D01*
G01*
X14198500Y-8455000D02*
G75*
G03*
X14198500Y-8455000I-50000J0D01*
G01*
X14198500Y-9840000D02*
G75*
G03*
X14198500Y-9840000I-50000J0D01*
G01*
X14452500Y-8455000D02*
G75*
G03*
X14452500Y-8455000I-50000J0D01*
G01*
X14452500Y-9840000D02*
G75*
G03*
X14452500Y-9840000I-50000J0D01*
G01*
X14706500Y-8455000D02*
G75*
G03*
X14706500Y-8455000I-50000J0D01*
G01*
X14706500Y-9840000D02*
G75*
G03*
X14706500Y-9840000I-50000J0D01*
G01*
X14960500Y-8455000D02*
G75*
G03*
X14960500Y-8455000I-50000J0D01*
G01*
X14960500Y-9840000D02*
G75*
G03*
X14960500Y-9840000I-50000J0D01*
G01*
X15214500Y-8455000D02*
G75*
G03*
X15214500Y-8455000I-50000J0D01*
G01*
X15214500Y-9840000D02*
G75*
G03*
X15214500Y-9840000I-50000J0D01*
G01*
X15468500Y-8455000D02*
G75*
G03*
X15468500Y-8455000I-50000J0D01*
G01*
X15468500Y-9840000D02*
G75*
G03*
X15468500Y-9840000I-50000J0D01*
G01*
X15722500Y-8455000D02*
G75*
G03*
X15722500Y-8455000I-50000J0D01*
G01*
X15722500Y-9840000D02*
G75*
G03*
X15722500Y-9840000I-50000J0D01*
G01*
X15976500Y-8455000D02*
G75*
G03*
X15976500Y-8455000I-50000J0D01*
G01*
X15976500Y-9840000D02*
G75*
G03*
X15976500Y-9840000I-50000J0D01*
G01*
X16230500Y-8455000D02*
G75*
G03*
X16230500Y-8455000I-50000J0D01*
G01*
X16230500Y-9840000D02*
G75*
G03*
X16230500Y-9840000I-50000J0D01*
G01*
X16484500Y-8455000D02*
G75*
G03*
X16484500Y-8455000I-50000J0D01*
G01*
X16484500Y-9840000D02*
G75*
G03*
X16484500Y-9840000I-50000J0D01*
G01*
X16738500Y-8455000D02*
G75*
G03*
X16738500Y-8455000I-50000J0D01*
G01*
X16738500Y-9840000D02*
G75*
G03*
X16738500Y-9840000I-50000J0D01*
G01*
D11*
X13460619Y-10561476D02*
X13460619Y-10361476D01*
X13508238Y-10361476D01*
X13536809Y-10371000D01*
X13555857Y-10390048D01*
X13565381Y-10409095D01*
X13574905Y-10447190D01*
X13574905Y-10475762D01*
X13565381Y-10513857D01*
X13555857Y-10532905D01*
X13536809Y-10551952D01*
X13508238Y-10561476D01*
X13460619Y-10561476D01*
X13660619Y-10561476D02*
X13660619Y-10428143D01*
X13660619Y-10466238D02*
X13670143Y-10447190D01*
X13679667Y-10437667D01*
X13698714Y-10428143D01*
X13717762Y-10428143D01*
X13784428Y-10561476D02*
X13784428Y-10428143D01*
X13784428Y-10361476D02*
X13774905Y-10371000D01*
X13784428Y-10380524D01*
X13793952Y-10371000D01*
X13784428Y-10361476D01*
X13784428Y-10380524D01*
X13908238Y-10561476D02*
X13889190Y-10551952D01*
X13879667Y-10532905D01*
X13879667Y-10361476D01*
X14013000Y-10561476D02*
X13993952Y-10551952D01*
X13984428Y-10532905D01*
X13984428Y-10361476D01*
X14241571Y-10561476D02*
X14241571Y-10361476D01*
X14308238Y-10504333D01*
X14374905Y-10361476D01*
X14374905Y-10561476D01*
X14555857Y-10561476D02*
X14555857Y-10456714D01*
X14546333Y-10437667D01*
X14527286Y-10428143D01*
X14489190Y-10428143D01*
X14470143Y-10437667D01*
X14555857Y-10551952D02*
X14536809Y-10561476D01*
X14489190Y-10561476D01*
X14470143Y-10551952D01*
X14460619Y-10532905D01*
X14460619Y-10513857D01*
X14470143Y-10494810D01*
X14489190Y-10485286D01*
X14536809Y-10485286D01*
X14555857Y-10475762D01*
X14651095Y-10428143D02*
X14651095Y-10628143D01*
X14651095Y-10437667D02*
X14670143Y-10428143D01*
X14708238Y-10428143D01*
X14727286Y-10437667D01*
X14736809Y-10447190D01*
X14746333Y-10466238D01*
X14746333Y-10523381D01*
X14736809Y-10542429D01*
X14727286Y-10551952D01*
X14708238Y-10561476D01*
X14670143Y-10561476D01*
X14651095Y-10551952D01*
X14832048Y-10542429D02*
X14841571Y-10551952D01*
X14832048Y-10561476D01*
X14822524Y-10551952D01*
X14832048Y-10542429D01*
X14832048Y-10561476D01*
X14832048Y-10437667D02*
X14841571Y-10447190D01*
X14832048Y-10456714D01*
X14822524Y-10447190D01*
X14832048Y-10437667D01*
X14832048Y-10456714D01*
D12*
X13183000Y-10881000D02*
X13203000Y-10901000D01*
X13203000Y-10881000D02*
X13183000Y-10901000D01*
D11*
X13498714Y-10781476D02*
X13517762Y-10781476D01*
X13536809Y-10791000D01*
X13546333Y-10800524D01*
X13555857Y-10819571D01*
X13565381Y-10857667D01*
X13565381Y-10905286D01*
X13555857Y-10943381D01*
X13546333Y-10962429D01*
X13536809Y-10971952D01*
X13517762Y-10981476D01*
X13498714Y-10981476D01*
X13479667Y-10971952D01*
X13470143Y-10962429D01*
X13460619Y-10943381D01*
X13451095Y-10905286D01*
X13451095Y-10857667D01*
X13460619Y-10819571D01*
X13470143Y-10800524D01*
X13479667Y-10791000D01*
X13498714Y-10781476D01*
X13651095Y-10962429D02*
X13660619Y-10971952D01*
X13651095Y-10981476D01*
X13641571Y-10971952D01*
X13651095Y-10962429D01*
X13651095Y-10981476D01*
X13736809Y-10800524D02*
X13746333Y-10791000D01*
X13765381Y-10781476D01*
X13813000Y-10781476D01*
X13832048Y-10791000D01*
X13841571Y-10800524D01*
X13851095Y-10819571D01*
X13851095Y-10838619D01*
X13841571Y-10867190D01*
X13727286Y-10981476D01*
X13851095Y-10981476D01*
X13974905Y-10781476D02*
X13993952Y-10781476D01*
X14013000Y-10791000D01*
X14022524Y-10800524D01*
X14032048Y-10819571D01*
X14041571Y-10857667D01*
X14041571Y-10905286D01*
X14032048Y-10943381D01*
X14022524Y-10962429D01*
X14013000Y-10971952D01*
X13993952Y-10981476D01*
X13974905Y-10981476D01*
X13955857Y-10971952D01*
X13946333Y-10962429D01*
X13936809Y-10943381D01*
X13927286Y-10905286D01*
X13927286Y-10857667D01*
X13936809Y-10819571D01*
X13946333Y-10800524D01*
X13955857Y-10791000D01*
X13974905Y-10781476D01*
X14165381Y-10781476D02*
X14184428Y-10781476D01*
X14203476Y-10791000D01*
X14213000Y-10800524D01*
X14222524Y-10819571D01*
X14232048Y-10857667D01*
X14232048Y-10905286D01*
X14222524Y-10943381D01*
X14213000Y-10962429D01*
X14203476Y-10971952D01*
X14184428Y-10981476D01*
X14165381Y-10981476D01*
X14146333Y-10971952D01*
X14136809Y-10962429D01*
X14127286Y-10943381D01*
X14117762Y-10905286D01*
X14117762Y-10857667D01*
X14127286Y-10819571D01*
X14136809Y-10800524D01*
X14146333Y-10791000D01*
X14165381Y-10781476D01*
X14317762Y-10981476D02*
X14317762Y-10848143D01*
X14317762Y-10867190D02*
X14327286Y-10857667D01*
X14346333Y-10848143D01*
X14374905Y-10848143D01*
X14393952Y-10857667D01*
X14403476Y-10876714D01*
X14403476Y-10981476D01*
X14403476Y-10876714D02*
X14413000Y-10857667D01*
X14432048Y-10848143D01*
X14460619Y-10848143D01*
X14479667Y-10857667D01*
X14489190Y-10876714D01*
X14489190Y-10981476D01*
X14584428Y-10981476D02*
X14584428Y-10848143D01*
X14584428Y-10867190D02*
X14593952Y-10857667D01*
X14613000Y-10848143D01*
X14641571Y-10848143D01*
X14660619Y-10857667D01*
X14670143Y-10876714D01*
X14670143Y-10981476D01*
X14670143Y-10876714D02*
X14679667Y-10857667D01*
X14698714Y-10848143D01*
X14727286Y-10848143D01*
X14746333Y-10857667D01*
X14755857Y-10876714D01*
X14755857Y-10981476D01*
X15146333Y-10771952D02*
X14974905Y-11029095D01*
X15403476Y-10781476D02*
X15422524Y-10781476D01*
X15441571Y-10791000D01*
X15451095Y-10800524D01*
X15460619Y-10819571D01*
X15470143Y-10857667D01*
X15470143Y-10905286D01*
X15460619Y-10943381D01*
X15451095Y-10962429D01*
X15441571Y-10971952D01*
X15422524Y-10981476D01*
X15403476Y-10981476D01*
X15384428Y-10971952D01*
X15374905Y-10962429D01*
X15365381Y-10943381D01*
X15355857Y-10905286D01*
X15355857Y-10857667D01*
X15365381Y-10819571D01*
X15374905Y-10800524D01*
X15384428Y-10791000D01*
X15403476Y-10781476D01*
X15555857Y-10962429D02*
X15565381Y-10971952D01*
X15555857Y-10981476D01*
X15546333Y-10971952D01*
X15555857Y-10962429D01*
X15555857Y-10981476D01*
X15689190Y-10781476D02*
X15708238Y-10781476D01*
X15727286Y-10791000D01*
X15736809Y-10800524D01*
X15746333Y-10819571D01*
X15755857Y-10857667D01*
X15755857Y-10905286D01*
X15746333Y-10943381D01*
X15736809Y-10962429D01*
X15727286Y-10971952D01*
X15708238Y-10981476D01*
X15689190Y-10981476D01*
X15670143Y-10971952D01*
X15660619Y-10962429D01*
X15651095Y-10943381D01*
X15641571Y-10905286D01*
X15641571Y-10857667D01*
X15651095Y-10819571D01*
X15660619Y-10800524D01*
X15670143Y-10791000D01*
X15689190Y-10781476D01*
X15879667Y-10781476D02*
X15898714Y-10781476D01*
X15917762Y-10791000D01*
X15927286Y-10800524D01*
X15936809Y-10819571D01*
X15946333Y-10857667D01*
X15946333Y-10905286D01*
X15936809Y-10943381D01*
X15927286Y-10962429D01*
X15917762Y-10971952D01*
X15898714Y-10981476D01*
X15879667Y-10981476D01*
X15860619Y-10971952D01*
X15851095Y-10962429D01*
X15841571Y-10943381D01*
X15832048Y-10905286D01*
X15832048Y-10857667D01*
X15841571Y-10819571D01*
X15851095Y-10800524D01*
X15860619Y-10791000D01*
X15879667Y-10781476D01*
X16013000Y-10781476D02*
X16146333Y-10781476D01*
X16060619Y-10981476D01*
X16232048Y-10981476D02*
X16270143Y-10981476D01*
X16289190Y-10971952D01*
X16298714Y-10962429D01*
X16317762Y-10933857D01*
X16327286Y-10895762D01*
X16327286Y-10819571D01*
X16317762Y-10800524D01*
X16308238Y-10791000D01*
X16289190Y-10781476D01*
X16251095Y-10781476D01*
X16232048Y-10791000D01*
X16222524Y-10800524D01*
X16213000Y-10819571D01*
X16213000Y-10867190D01*
X16222524Y-10886238D01*
X16232048Y-10895762D01*
X16251095Y-10905286D01*
X16289190Y-10905286D01*
X16308238Y-10895762D01*
X16317762Y-10886238D01*
X16327286Y-10867190D01*
X16403476Y-10781476D02*
X16403476Y-10819571D01*
X16479667Y-10781476D02*
X16479667Y-10819571D01*
X16774905Y-11057667D02*
X16765381Y-11048143D01*
X16746333Y-11019571D01*
X16736809Y-11000524D01*
X16727286Y-10971952D01*
X16717762Y-10924333D01*
X16717762Y-10886238D01*
X16727286Y-10838619D01*
X16736809Y-10810048D01*
X16746333Y-10791000D01*
X16765381Y-10762429D01*
X16774905Y-10752905D01*
X16946333Y-10781476D02*
X16851095Y-10781476D01*
X16841571Y-10876714D01*
X16851095Y-10867190D01*
X16870143Y-10857667D01*
X16917762Y-10857667D01*
X16936810Y-10867190D01*
X16946333Y-10876714D01*
X16955857Y-10895762D01*
X16955857Y-10943381D01*
X16946333Y-10962429D01*
X16936810Y-10971952D01*
X16917762Y-10981476D01*
X16870143Y-10981476D01*
X16851095Y-10971952D01*
X16841571Y-10962429D01*
X17127286Y-10848143D02*
X17127286Y-10981476D01*
X17079667Y-10771952D02*
X17032048Y-10914810D01*
X17155857Y-10914810D01*
X17384429Y-10981476D02*
X17384429Y-10781476D01*
X17470143Y-10981476D02*
X17470143Y-10876714D01*
X17460619Y-10857667D01*
X17441571Y-10848143D01*
X17413000Y-10848143D01*
X17393952Y-10857667D01*
X17384429Y-10867190D01*
X17593952Y-10981476D02*
X17574905Y-10971952D01*
X17565381Y-10962429D01*
X17555857Y-10943381D01*
X17555857Y-10886238D01*
X17565381Y-10867190D01*
X17574905Y-10857667D01*
X17593952Y-10848143D01*
X17622524Y-10848143D01*
X17641571Y-10857667D01*
X17651095Y-10867190D01*
X17660619Y-10886238D01*
X17660619Y-10943381D01*
X17651095Y-10962429D01*
X17641571Y-10971952D01*
X17622524Y-10981476D01*
X17593952Y-10981476D01*
X17774905Y-10981476D02*
X17755857Y-10971952D01*
X17746333Y-10952905D01*
X17746333Y-10781476D01*
X17927286Y-10971952D02*
X17908238Y-10981476D01*
X17870143Y-10981476D01*
X17851095Y-10971952D01*
X17841571Y-10952905D01*
X17841571Y-10876714D01*
X17851095Y-10857667D01*
X17870143Y-10848143D01*
X17908238Y-10848143D01*
X17927286Y-10857667D01*
X17936810Y-10876714D01*
X17936810Y-10895762D01*
X17841571Y-10914810D01*
X18013000Y-10971952D02*
X18032048Y-10981476D01*
X18070143Y-10981476D01*
X18089190Y-10971952D01*
X18098714Y-10952905D01*
X18098714Y-10943381D01*
X18089190Y-10924333D01*
X18070143Y-10914810D01*
X18041571Y-10914810D01*
X18022524Y-10905286D01*
X18013000Y-10886238D01*
X18013000Y-10876714D01*
X18022524Y-10857667D01*
X18041571Y-10848143D01*
X18070143Y-10848143D01*
X18089190Y-10857667D01*
X18165381Y-11057667D02*
X18174905Y-11048143D01*
X18193952Y-11019571D01*
X18203476Y-11000524D01*
X18213000Y-10971952D01*
X18222524Y-10924333D01*
X18222524Y-10886238D01*
X18213000Y-10838619D01*
X18203476Y-10810048D01*
X18193952Y-10791000D01*
X18174905Y-10762429D01*
X18165381Y-10752905D01*
D13*
X13203000Y-11155000D02*
G75*
G03*
X13203000Y-11155000I-50000J0D01*
G01*
D11*
X13565381Y-11245476D02*
X13451095Y-11245476D01*
X13508238Y-11245476D02*
X13508238Y-11045476D01*
X13489190Y-11074048D01*
X13470143Y-11093095D01*
X13451095Y-11102619D01*
X13651095Y-11226428D02*
X13660619Y-11235952D01*
X13651095Y-11245476D01*
X13641571Y-11235952D01*
X13651095Y-11226428D01*
X13651095Y-11245476D01*
X13784428Y-11045476D02*
X13803476Y-11045476D01*
X13822524Y-11055000D01*
X13832048Y-11064524D01*
X13841571Y-11083571D01*
X13851095Y-11121667D01*
X13851095Y-11169286D01*
X13841571Y-11207381D01*
X13832048Y-11226428D01*
X13822524Y-11235952D01*
X13803476Y-11245476D01*
X13784428Y-11245476D01*
X13765381Y-11235952D01*
X13755857Y-11226428D01*
X13746333Y-11207381D01*
X13736809Y-11169286D01*
X13736809Y-11121667D01*
X13746333Y-11083571D01*
X13755857Y-11064524D01*
X13765381Y-11055000D01*
X13784428Y-11045476D01*
X13974905Y-11045476D02*
X13993952Y-11045476D01*
X14013000Y-11055000D01*
X14022524Y-11064524D01*
X14032048Y-11083571D01*
X14041571Y-11121667D01*
X14041571Y-11169286D01*
X14032048Y-11207381D01*
X14022524Y-11226428D01*
X14013000Y-11235952D01*
X13993952Y-11245476D01*
X13974905Y-11245476D01*
X13955857Y-11235952D01*
X13946333Y-11226428D01*
X13936809Y-11207381D01*
X13927286Y-11169286D01*
X13927286Y-11121667D01*
X13936809Y-11083571D01*
X13946333Y-11064524D01*
X13955857Y-11055000D01*
X13974905Y-11045476D01*
X14165381Y-11045476D02*
X14184428Y-11045476D01*
X14203476Y-11055000D01*
X14213000Y-11064524D01*
X14222524Y-11083571D01*
X14232048Y-11121667D01*
X14232048Y-11169286D01*
X14222524Y-11207381D01*
X14213000Y-11226428D01*
X14203476Y-11235952D01*
X14184428Y-11245476D01*
X14165381Y-11245476D01*
X14146333Y-11235952D01*
X14136809Y-11226428D01*
X14127286Y-11207381D01*
X14117762Y-11169286D01*
X14117762Y-11121667D01*
X14127286Y-11083571D01*
X14136809Y-11064524D01*
X14146333Y-11055000D01*
X14165381Y-11045476D01*
X14317762Y-11245476D02*
X14317762Y-11112143D01*
X14317762Y-11131190D02*
X14327286Y-11121667D01*
X14346333Y-11112143D01*
X14374905Y-11112143D01*
X14393952Y-11121667D01*
X14403476Y-11140714D01*
X14403476Y-11245476D01*
X14403476Y-11140714D02*
X14413000Y-11121667D01*
X14432048Y-11112143D01*
X14460619Y-11112143D01*
X14479667Y-11121667D01*
X14489190Y-11140714D01*
X14489190Y-11245476D01*
X14584428Y-11245476D02*
X14584428Y-11112143D01*
X14584428Y-11131190D02*
X14593952Y-11121667D01*
X14613000Y-11112143D01*
X14641571Y-11112143D01*
X14660619Y-11121667D01*
X14670143Y-11140714D01*
X14670143Y-11245476D01*
X14670143Y-11140714D02*
X14679667Y-11121667D01*
X14698714Y-11112143D01*
X14727286Y-11112143D01*
X14746333Y-11121667D01*
X14755857Y-11140714D01*
X14755857Y-11245476D01*
X15146333Y-11035952D02*
X14974905Y-11293095D01*
X15403476Y-11045476D02*
X15422524Y-11045476D01*
X15441571Y-11055000D01*
X15451095Y-11064524D01*
X15460619Y-11083571D01*
X15470143Y-11121667D01*
X15470143Y-11169286D01*
X15460619Y-11207381D01*
X15451095Y-11226428D01*
X15441571Y-11235952D01*
X15422524Y-11245476D01*
X15403476Y-11245476D01*
X15384428Y-11235952D01*
X15374905Y-11226428D01*
X15365381Y-11207381D01*
X15355857Y-11169286D01*
X15355857Y-11121667D01*
X15365381Y-11083571D01*
X15374905Y-11064524D01*
X15384428Y-11055000D01*
X15403476Y-11045476D01*
X15555857Y-11226428D02*
X15565381Y-11235952D01*
X15555857Y-11245476D01*
X15546333Y-11235952D01*
X15555857Y-11226428D01*
X15555857Y-11245476D01*
X15689190Y-11045476D02*
X15708238Y-11045476D01*
X15727286Y-11055000D01*
X15736809Y-11064524D01*
X15746333Y-11083571D01*
X15755857Y-11121667D01*
X15755857Y-11169286D01*
X15746333Y-11207381D01*
X15736809Y-11226428D01*
X15727286Y-11235952D01*
X15708238Y-11245476D01*
X15689190Y-11245476D01*
X15670143Y-11235952D01*
X15660619Y-11226428D01*
X15651095Y-11207381D01*
X15641571Y-11169286D01*
X15641571Y-11121667D01*
X15651095Y-11083571D01*
X15660619Y-11064524D01*
X15670143Y-11055000D01*
X15689190Y-11045476D01*
X15822524Y-11045476D02*
X15946333Y-11045476D01*
X15879667Y-11121667D01*
X15908238Y-11121667D01*
X15927286Y-11131190D01*
X15936809Y-11140714D01*
X15946333Y-11159762D01*
X15946333Y-11207381D01*
X15936809Y-11226428D01*
X15927286Y-11235952D01*
X15908238Y-11245476D01*
X15851095Y-11245476D01*
X15832048Y-11235952D01*
X15822524Y-11226428D01*
X16041571Y-11245476D02*
X16079667Y-11245476D01*
X16098714Y-11235952D01*
X16108238Y-11226428D01*
X16127286Y-11197857D01*
X16136809Y-11159762D01*
X16136809Y-11083571D01*
X16127286Y-11064524D01*
X16117762Y-11055000D01*
X16098714Y-11045476D01*
X16060619Y-11045476D01*
X16041571Y-11055000D01*
X16032048Y-11064524D01*
X16022524Y-11083571D01*
X16022524Y-11131190D01*
X16032048Y-11150238D01*
X16041571Y-11159762D01*
X16060619Y-11169286D01*
X16098714Y-11169286D01*
X16117762Y-11159762D01*
X16127286Y-11150238D01*
X16136809Y-11131190D01*
X16308238Y-11112143D02*
X16308238Y-11245476D01*
X16260619Y-11035952D02*
X16213000Y-11178810D01*
X16336809Y-11178810D01*
X16403476Y-11045476D02*
X16403476Y-11083571D01*
X16479667Y-11045476D02*
X16479667Y-11083571D01*
X16774905Y-11321667D02*
X16765381Y-11312143D01*
X16746333Y-11283571D01*
X16736809Y-11264524D01*
X16727286Y-11235952D01*
X16717762Y-11188333D01*
X16717762Y-11150238D01*
X16727286Y-11102619D01*
X16736809Y-11074048D01*
X16746333Y-11055000D01*
X16765381Y-11026429D01*
X16774905Y-11016905D01*
X16841571Y-11064524D02*
X16851095Y-11055000D01*
X16870143Y-11045476D01*
X16917762Y-11045476D01*
X16936810Y-11055000D01*
X16946333Y-11064524D01*
X16955857Y-11083571D01*
X16955857Y-11102619D01*
X16946333Y-11131190D01*
X16832048Y-11245476D01*
X16955857Y-11245476D01*
X17070143Y-11131190D02*
X17051095Y-11121667D01*
X17041571Y-11112143D01*
X17032048Y-11093095D01*
X17032048Y-11083571D01*
X17041571Y-11064524D01*
X17051095Y-11055000D01*
X17070143Y-11045476D01*
X17108238Y-11045476D01*
X17127286Y-11055000D01*
X17136810Y-11064524D01*
X17146333Y-11083571D01*
X17146333Y-11093095D01*
X17136810Y-11112143D01*
X17127286Y-11121667D01*
X17108238Y-11131190D01*
X17070143Y-11131190D01*
X17051095Y-11140714D01*
X17041571Y-11150238D01*
X17032048Y-11169286D01*
X17032048Y-11207381D01*
X17041571Y-11226428D01*
X17051095Y-11235952D01*
X17070143Y-11245476D01*
X17108238Y-11245476D01*
X17127286Y-11235952D01*
X17136810Y-11226428D01*
X17146333Y-11207381D01*
X17146333Y-11169286D01*
X17136810Y-11150238D01*
X17127286Y-11140714D01*
X17108238Y-11131190D01*
X17384429Y-11245476D02*
X17384429Y-11045476D01*
X17470143Y-11245476D02*
X17470143Y-11140714D01*
X17460619Y-11121667D01*
X17441571Y-11112143D01*
X17413000Y-11112143D01*
X17393952Y-11121667D01*
X17384429Y-11131190D01*
X17593952Y-11245476D02*
X17574905Y-11235952D01*
X17565381Y-11226428D01*
X17555857Y-11207381D01*
X17555857Y-11150238D01*
X17565381Y-11131190D01*
X17574905Y-11121667D01*
X17593952Y-11112143D01*
X17622524Y-11112143D01*
X17641571Y-11121667D01*
X17651095Y-11131190D01*
X17660619Y-11150238D01*
X17660619Y-11207381D01*
X17651095Y-11226428D01*
X17641571Y-11235952D01*
X17622524Y-11245476D01*
X17593952Y-11245476D01*
X17774905Y-11245476D02*
X17755857Y-11235952D01*
X17746333Y-11216905D01*
X17746333Y-11045476D01*
X17927286Y-11235952D02*
X17908238Y-11245476D01*
X17870143Y-11245476D01*
X17851095Y-11235952D01*
X17841571Y-11216905D01*
X17841571Y-11140714D01*
X17851095Y-11121667D01*
X17870143Y-11112143D01*
X17908238Y-11112143D01*
X17927286Y-11121667D01*
X17936810Y-11140714D01*
X17936810Y-11159762D01*
X17841571Y-11178810D01*
X18013000Y-11235952D02*
X18032048Y-11245476D01*
X18070143Y-11245476D01*
X18089190Y-11235952D01*
X18098714Y-11216905D01*
X18098714Y-11207381D01*
X18089190Y-11188333D01*
X18070143Y-11178810D01*
X18041571Y-11178810D01*
X18022524Y-11169286D01*
X18013000Y-11150238D01*
X18013000Y-11140714D01*
X18022524Y-11121667D01*
X18041571Y-11112143D01*
X18070143Y-11112143D01*
X18089190Y-11121667D01*
X18165381Y-11321667D02*
X18174905Y-11312143D01*
X18193952Y-11283571D01*
X18203476Y-11264524D01*
X18213000Y-11235952D01*
X18222524Y-11188333D01*
X18222524Y-11150238D01*
X18213000Y-11102619D01*
X18203476Y-11074048D01*
X18193952Y-11055000D01*
X18174905Y-11026429D01*
X18165381Y-11016905D01*
M02*
