G04 #@! TF.GenerationSoftware,KiCad,Pcbnew,(6.0.0)*
G04 #@! TF.CreationDate,2022-11-09T00:21:30-05:00*
G04 #@! TF.ProjectId,0603 display board,30363033-2064-4697-9370-6c617920626f,rev?*
G04 #@! TF.SameCoordinates,Original*
G04 #@! TF.FileFunction,Legend,Top*
G04 #@! TF.FilePolarity,Positive*
%FSLAX46Y46*%
G04 Gerber Fmt 4.6, Leading zero omitted, Abs format (unit mm)*
G04 Created by KiCad (PCBNEW (6.0.0)) date 2022-11-09 00:21:30*
%MOMM*%
%LPD*%
G01*
G04 APERTURE LIST*
G04 Aperture macros list*
%AMRoundRect*
0 Rectangle with rounded corners*
0 $1 Rounding radius*
0 $2 $3 $4 $5 $6 $7 $8 $9 X,Y pos of 4 corners*
0 Add a 4 corners polygon primitive as box body*
4,1,4,$2,$3,$4,$5,$6,$7,$8,$9,$2,$3,0*
0 Add four circle primitives for the rounded corners*
1,1,$1+$1,$2,$3*
1,1,$1+$1,$4,$5*
1,1,$1+$1,$6,$7*
1,1,$1+$1,$8,$9*
0 Add four rect primitives between the rounded corners*
20,1,$1+$1,$2,$3,$4,$5,0*
20,1,$1+$1,$4,$5,$6,$7,0*
20,1,$1+$1,$6,$7,$8,$9,0*
20,1,$1+$1,$8,$9,$2,$3,0*%
G04 Aperture macros list end*
%ADD10C,0.150000*%
%ADD11C,0.120000*%
%ADD12RoundRect,0.125000X0.275000X-0.125000X0.275000X0.125000X-0.275000X0.125000X-0.275000X-0.125000X0*%
%ADD13RoundRect,0.125000X0.125000X0.275000X-0.125000X0.275000X-0.125000X-0.275000X0.125000X-0.275000X0*%
%ADD14R,1.700000X1.700000*%
%ADD15O,1.700000X1.700000*%
G04 APERTURE END LIST*
D10*
X134874047Y-83256428D02*
X135635952Y-83256428D01*
X134874047Y-92781428D02*
X135635952Y-92781428D01*
X135255000Y-93162380D02*
X135255000Y-92400476D01*
X167259047Y-93416428D02*
X168020952Y-93416428D01*
X167640000Y-93797380D02*
X167640000Y-93035476D01*
X162814047Y-93416428D02*
X163575952Y-93416428D01*
D11*
X148336000Y-91440000D02*
X149352000Y-91440000D01*
X149352000Y-91440000D02*
X149352000Y-89370000D01*
X148336000Y-89370000D02*
X148336000Y-91440000D01*
X141605000Y-94107000D02*
X139535000Y-94107000D01*
X141605000Y-95123000D02*
X141605000Y-94107000D01*
X139535000Y-95123000D02*
X141605000Y-95123000D01*
X154775000Y-89408000D02*
X156845000Y-89408000D01*
X156845000Y-88392000D02*
X154775000Y-88392000D01*
X156845000Y-89408000D02*
X156845000Y-88392000D01*
X167005000Y-95123000D02*
X167005000Y-94107000D01*
X167005000Y-94107000D02*
X164935000Y-94107000D01*
X164935000Y-95123000D02*
X167005000Y-95123000D01*
X151765000Y-90932000D02*
X149695000Y-90932000D01*
X151765000Y-91948000D02*
X151765000Y-90932000D01*
X149695000Y-91948000D02*
X151765000Y-91948000D01*
X157734000Y-88900000D02*
X157734000Y-86830000D01*
X156718000Y-86830000D02*
X156718000Y-88900000D01*
X156718000Y-88900000D02*
X157734000Y-88900000D01*
X136525000Y-95123000D02*
X136525000Y-94107000D01*
X136525000Y-94107000D02*
X134455000Y-94107000D01*
X134455000Y-95123000D02*
X136525000Y-95123000D01*
X148336000Y-86830000D02*
X148336000Y-88900000D01*
X149352000Y-88900000D02*
X149352000Y-86830000D01*
X148336000Y-88900000D02*
X149352000Y-88900000D01*
X134455000Y-91948000D02*
X136525000Y-91948000D01*
X136525000Y-90932000D02*
X134455000Y-90932000D01*
X136525000Y-91948000D02*
X136525000Y-90932000D01*
X137414000Y-91440000D02*
X137414000Y-89370000D01*
X136398000Y-91440000D02*
X137414000Y-91440000D01*
X136398000Y-89370000D02*
X136398000Y-91440000D01*
X167005000Y-91948000D02*
X167005000Y-90932000D01*
X167005000Y-90932000D02*
X164935000Y-90932000D01*
X164935000Y-91948000D02*
X167005000Y-91948000D01*
X146558000Y-86830000D02*
X146558000Y-88900000D01*
X147574000Y-88900000D02*
X147574000Y-86830000D01*
X146558000Y-88900000D02*
X147574000Y-88900000D01*
X156845000Y-95123000D02*
X156845000Y-94107000D01*
X154775000Y-95123000D02*
X156845000Y-95123000D01*
X156845000Y-94107000D02*
X154775000Y-94107000D01*
X143256000Y-86830000D02*
X143256000Y-88900000D01*
X144272000Y-88900000D02*
X144272000Y-86830000D01*
X143256000Y-88900000D02*
X144272000Y-88900000D01*
X167005000Y-86868000D02*
X167005000Y-85852000D01*
X167005000Y-85852000D02*
X164935000Y-85852000D01*
X164935000Y-86868000D02*
X167005000Y-86868000D01*
X146685000Y-90932000D02*
X144615000Y-90932000D01*
X144615000Y-91948000D02*
X146685000Y-91948000D01*
X146685000Y-91948000D02*
X146685000Y-90932000D01*
X149695000Y-89408000D02*
X151765000Y-89408000D01*
X151765000Y-88392000D02*
X149695000Y-88392000D01*
X151765000Y-89408000D02*
X151765000Y-88392000D01*
X158496000Y-88900000D02*
X159512000Y-88900000D01*
X159512000Y-88900000D02*
X159512000Y-86830000D01*
X158496000Y-86830000D02*
X158496000Y-88900000D01*
X133096000Y-91440000D02*
X134112000Y-91440000D01*
X134112000Y-91440000D02*
X134112000Y-89370000D01*
X133096000Y-89370000D02*
X133096000Y-91440000D01*
X136525000Y-88392000D02*
X134455000Y-88392000D01*
X134455000Y-89408000D02*
X136525000Y-89408000D01*
X136525000Y-89408000D02*
X136525000Y-88392000D01*
X146685000Y-94107000D02*
X144615000Y-94107000D01*
X146685000Y-95123000D02*
X146685000Y-94107000D01*
X144615000Y-95123000D02*
X146685000Y-95123000D01*
X162814000Y-91440000D02*
X162814000Y-89370000D01*
X161798000Y-91440000D02*
X162814000Y-91440000D01*
X161798000Y-89370000D02*
X161798000Y-91440000D01*
X149695000Y-86868000D02*
X151765000Y-86868000D01*
X151765000Y-85852000D02*
X149695000Y-85852000D01*
X151765000Y-86868000D02*
X151765000Y-85852000D01*
X151638000Y-89370000D02*
X151638000Y-91440000D01*
X151638000Y-91440000D02*
X152654000Y-91440000D01*
X152654000Y-91440000D02*
X152654000Y-89370000D01*
X144272000Y-91440000D02*
X144272000Y-89370000D01*
X143256000Y-89370000D02*
X143256000Y-91440000D01*
X143256000Y-91440000D02*
X144272000Y-91440000D01*
X146685000Y-86868000D02*
X146685000Y-85852000D01*
X146685000Y-85852000D02*
X144615000Y-85852000D01*
X144615000Y-86868000D02*
X146685000Y-86868000D01*
X159855000Y-95123000D02*
X161925000Y-95123000D01*
X161925000Y-94107000D02*
X159855000Y-94107000D01*
X161925000Y-95123000D02*
X161925000Y-94107000D01*
X139192000Y-91440000D02*
X139192000Y-89370000D01*
X138176000Y-91440000D02*
X139192000Y-91440000D01*
X138176000Y-89370000D02*
X138176000Y-91440000D01*
X163576000Y-86830000D02*
X163576000Y-88900000D01*
X164592000Y-88900000D02*
X164592000Y-86830000D01*
X163576000Y-88900000D02*
X164592000Y-88900000D01*
X154432000Y-88900000D02*
X154432000Y-86830000D01*
X153416000Y-88900000D02*
X154432000Y-88900000D01*
X153416000Y-86830000D02*
X153416000Y-88900000D01*
X166878000Y-86830000D02*
X166878000Y-88900000D01*
X167894000Y-88900000D02*
X167894000Y-86830000D01*
X166878000Y-88900000D02*
X167894000Y-88900000D01*
X156845000Y-90932000D02*
X154775000Y-90932000D01*
X156845000Y-91948000D02*
X156845000Y-90932000D01*
X154775000Y-91948000D02*
X156845000Y-91948000D01*
X151765000Y-95123000D02*
X151765000Y-94107000D01*
X151765000Y-94107000D02*
X149695000Y-94107000D01*
X149695000Y-95123000D02*
X151765000Y-95123000D01*
X139535000Y-86868000D02*
X141605000Y-86868000D01*
X141605000Y-86868000D02*
X141605000Y-85852000D01*
X141605000Y-85852000D02*
X139535000Y-85852000D01*
X136525000Y-86868000D02*
X136525000Y-85852000D01*
X134455000Y-86868000D02*
X136525000Y-86868000D01*
X136525000Y-85852000D02*
X134455000Y-85852000D01*
X157734000Y-91440000D02*
X157734000Y-89370000D01*
X156718000Y-91440000D02*
X157734000Y-91440000D01*
X156718000Y-89370000D02*
X156718000Y-91440000D01*
X133096000Y-86830000D02*
X133096000Y-88900000D01*
X133096000Y-88900000D02*
X134112000Y-88900000D01*
X134112000Y-88900000D02*
X134112000Y-86830000D01*
X166878000Y-91440000D02*
X167894000Y-91440000D01*
X166878000Y-89370000D02*
X166878000Y-91440000D01*
X167894000Y-91440000D02*
X167894000Y-89370000D01*
X141605000Y-88392000D02*
X139535000Y-88392000D01*
X141605000Y-89408000D02*
X141605000Y-88392000D01*
X139535000Y-89408000D02*
X141605000Y-89408000D01*
X161925000Y-90932000D02*
X159855000Y-90932000D01*
X159855000Y-91948000D02*
X161925000Y-91948000D01*
X161925000Y-91948000D02*
X161925000Y-90932000D01*
X146685000Y-89408000D02*
X146685000Y-88392000D01*
X144615000Y-89408000D02*
X146685000Y-89408000D01*
X146685000Y-88392000D02*
X144615000Y-88392000D01*
X151638000Y-88900000D02*
X152654000Y-88900000D01*
X151638000Y-86830000D02*
X151638000Y-88900000D01*
X152654000Y-88900000D02*
X152654000Y-86830000D01*
X162814000Y-88900000D02*
X162814000Y-86830000D01*
X161798000Y-86830000D02*
X161798000Y-88900000D01*
X161798000Y-88900000D02*
X162814000Y-88900000D01*
X158496000Y-89370000D02*
X158496000Y-91440000D01*
X159512000Y-91440000D02*
X159512000Y-89370000D01*
X158496000Y-91440000D02*
X159512000Y-91440000D01*
X141478000Y-91440000D02*
X142494000Y-91440000D01*
X142494000Y-91440000D02*
X142494000Y-89370000D01*
X141478000Y-89370000D02*
X141478000Y-91440000D01*
X146558000Y-89370000D02*
X146558000Y-91440000D01*
X147574000Y-91440000D02*
X147574000Y-89370000D01*
X146558000Y-91440000D02*
X147574000Y-91440000D01*
X142494000Y-88900000D02*
X142494000Y-86830000D01*
X141478000Y-88900000D02*
X142494000Y-88900000D01*
X141478000Y-86830000D02*
X141478000Y-88900000D01*
X161925000Y-89408000D02*
X161925000Y-88392000D01*
X161925000Y-88392000D02*
X159855000Y-88392000D01*
X159855000Y-89408000D02*
X161925000Y-89408000D01*
X136398000Y-86830000D02*
X136398000Y-88900000D01*
X136398000Y-88900000D02*
X137414000Y-88900000D01*
X137414000Y-88900000D02*
X137414000Y-86830000D01*
X163576000Y-91440000D02*
X164592000Y-91440000D01*
X163576000Y-89370000D02*
X163576000Y-91440000D01*
X164592000Y-91440000D02*
X164592000Y-89370000D01*
X139192000Y-88900000D02*
X139192000Y-86830000D01*
X138176000Y-88900000D02*
X139192000Y-88900000D01*
X138176000Y-86830000D02*
X138176000Y-88900000D01*
X154432000Y-91440000D02*
X154432000Y-89370000D01*
X153416000Y-89370000D02*
X153416000Y-91440000D01*
X153416000Y-91440000D02*
X154432000Y-91440000D01*
X161925000Y-86868000D02*
X161925000Y-85852000D01*
X159855000Y-86868000D02*
X161925000Y-86868000D01*
X161925000Y-85852000D02*
X159855000Y-85852000D01*
X164935000Y-89408000D02*
X167005000Y-89408000D01*
X167005000Y-88392000D02*
X164935000Y-88392000D01*
X167005000Y-89408000D02*
X167005000Y-88392000D01*
X156845000Y-86868000D02*
X156845000Y-85852000D01*
X154775000Y-86868000D02*
X156845000Y-86868000D01*
X156845000Y-85852000D02*
X154775000Y-85852000D01*
X141605000Y-90932000D02*
X139535000Y-90932000D01*
X139535000Y-91948000D02*
X141605000Y-91948000D01*
X141605000Y-91948000D02*
X141605000Y-90932000D01*
%LPC*%
D12*
X148844000Y-90957500D03*
X148844000Y-89382500D03*
D13*
X141122500Y-94615000D03*
X139547500Y-94615000D03*
X156362500Y-88900000D03*
X154787500Y-88900000D03*
X166522500Y-94615000D03*
X164947500Y-94615000D03*
X151282500Y-91440000D03*
X149707500Y-91440000D03*
D12*
X157226000Y-88417500D03*
X157226000Y-86842500D03*
D13*
X136042500Y-94615000D03*
X134467500Y-94615000D03*
D12*
X148844000Y-88417500D03*
X148844000Y-86842500D03*
D13*
X136042500Y-91440000D03*
X134467500Y-91440000D03*
D12*
X136906000Y-90957500D03*
X136906000Y-89382500D03*
D13*
X166522500Y-91440000D03*
X164947500Y-91440000D03*
D12*
X147066000Y-88417500D03*
X147066000Y-86842500D03*
D13*
X156362500Y-94615000D03*
X154787500Y-94615000D03*
D12*
X143764000Y-88417500D03*
X143764000Y-86842500D03*
D13*
X166522500Y-86360000D03*
X164947500Y-86360000D03*
X146202500Y-91440000D03*
X144627500Y-91440000D03*
X151282500Y-88900000D03*
X149707500Y-88900000D03*
D12*
X159004000Y-88417500D03*
X159004000Y-86842500D03*
X133604000Y-90957500D03*
X133604000Y-89382500D03*
D13*
X136042500Y-88900000D03*
X134467500Y-88900000D03*
X146202500Y-94615000D03*
X144627500Y-94615000D03*
D12*
X162306000Y-90957500D03*
X162306000Y-89382500D03*
D13*
X151282500Y-86360000D03*
X149707500Y-86360000D03*
D12*
X152146000Y-90957500D03*
X152146000Y-89382500D03*
X143764000Y-90957500D03*
X143764000Y-89382500D03*
D13*
X146202500Y-86360000D03*
X144627500Y-86360000D03*
X161442500Y-94615000D03*
X159867500Y-94615000D03*
D12*
X138684000Y-90957500D03*
X138684000Y-89382500D03*
X164084000Y-88417500D03*
X164084000Y-86842500D03*
X153924000Y-88417500D03*
X153924000Y-86842500D03*
X167386000Y-88417500D03*
X167386000Y-86842500D03*
D13*
X156362500Y-91440000D03*
X154787500Y-91440000D03*
X151282500Y-94615000D03*
X149707500Y-94615000D03*
X141122500Y-86360000D03*
X139547500Y-86360000D03*
X136042500Y-86360000D03*
X134467500Y-86360000D03*
D12*
X157226000Y-90957500D03*
X157226000Y-89382500D03*
X133604000Y-88417500D03*
X133604000Y-86842500D03*
X167386000Y-90957500D03*
X167386000Y-89382500D03*
D13*
X141122500Y-88900000D03*
X139547500Y-88900000D03*
X161442500Y-91440000D03*
X159867500Y-91440000D03*
X146202500Y-88900000D03*
X144627500Y-88900000D03*
D12*
X152146000Y-88417500D03*
X152146000Y-86842500D03*
X162306000Y-88417500D03*
X162306000Y-86842500D03*
X159004000Y-90957500D03*
X159004000Y-89382500D03*
X141986000Y-90957500D03*
X141986000Y-89382500D03*
X147066000Y-90957500D03*
X147066000Y-89382500D03*
X141986000Y-88417500D03*
X141986000Y-86842500D03*
D13*
X161442500Y-88900000D03*
X159867500Y-88900000D03*
D12*
X136906000Y-88417500D03*
X136906000Y-86842500D03*
X164084000Y-90957500D03*
X164084000Y-89382500D03*
X138684000Y-88417500D03*
X138684000Y-86842500D03*
X153924000Y-90957500D03*
X153924000Y-89382500D03*
D13*
X161442500Y-86360000D03*
X159867500Y-86360000D03*
X166522500Y-88900000D03*
X164947500Y-88900000D03*
X156362500Y-86360000D03*
X154787500Y-86360000D03*
X141122500Y-91440000D03*
X139547500Y-91440000D03*
D14*
X166885000Y-98400000D03*
D15*
X164345000Y-98400000D03*
X161805000Y-98400000D03*
X159265000Y-98400000D03*
X156725000Y-98400000D03*
X154185000Y-98400000D03*
X151645000Y-98400000D03*
X149105000Y-98400000D03*
X146565000Y-98400000D03*
X144025000Y-98400000D03*
X141485000Y-98400000D03*
X138945000Y-98400000D03*
X136405000Y-98400000D03*
X133865000Y-98400000D03*
D14*
X166885000Y-84550000D03*
D15*
X164345000Y-84550000D03*
X161805000Y-84550000D03*
X159265000Y-84550000D03*
X156725000Y-84550000D03*
X154185000Y-84550000D03*
X151645000Y-84550000D03*
X149105000Y-84550000D03*
X146565000Y-84550000D03*
X144025000Y-84550000D03*
X141485000Y-84550000D03*
X138945000Y-84550000D03*
X136405000Y-84550000D03*
X133865000Y-84550000D03*
M02*
