M48
; DRILL file {KiCad (6.0.0)} date Wed Nov  9 00:21:31 2022
; FORMAT={-:-/ absolute / metric / decimal}
; #@! TF.CreationDate,2022-11-09T00:21:31-05:00
; #@! TF.GenerationSoftware,Kicad,Pcbnew,(6.0.0)
; #@! TF.FileFunction,Plated,1,2,PTH
FMAT,2
METRIC
; #@! TA.AperFunction,Plated,PTH,ViaDrill
T1C0.200
; #@! TA.AperFunction,Plated,PTH,ComponentDrill
T2C1.000
%
G90
G05
T1
X133.604Y-87.63
X133.604Y-90.17
X135.255Y-86.36
X135.255Y-88.9
X135.255Y-91.44
X136.906Y-87.63
X136.906Y-90.17
X137.795Y-88.9
X138.684Y-87.63
X138.684Y-90.17
X140.335Y-86.36
X140.335Y-88.9
X140.335Y-91.44
X141.986Y-87.63
X141.986Y-90.17
X143.764Y-87.63
X143.764Y-90.17
X145.415Y-86.36
X145.415Y-88.9
X145.415Y-91.44
X147.066Y-87.63
X147.066Y-90.17
X148.844Y-87.63
X148.844Y-90.17
X150.495Y-86.36
X150.495Y-88.9
X150.495Y-91.44
X152.146Y-87.63
X152.146Y-90.17
X152.654Y-85.725
X153.924Y-87.63
X153.924Y-90.17
X155.575Y-86.36
X155.575Y-88.9
X155.575Y-91.44
X157.226Y-87.63
X157.226Y-90.17
X157.797Y-85.788
X159.004Y-87.63
X159.004Y-90.17
X160.655Y-86.36
X160.655Y-88.9
X160.655Y-91.44
X162.306Y-87.63
X162.306Y-90.17
X162.941Y-85.598
X163.212Y-89.645
X164.084Y-87.63
X164.084Y-90.17
X165.735Y-86.36
X165.735Y-88.9
X165.735Y-91.44
X167.386Y-87.63
X167.386Y-90.17
T2
X133.865Y-84.55
X133.865Y-98.4
X136.405Y-84.55
X136.405Y-98.4
X138.945Y-84.55
X138.945Y-98.4
X141.485Y-84.55
X141.485Y-98.4
X144.025Y-84.55
X144.025Y-98.4
X146.565Y-84.55
X146.565Y-98.4
X149.105Y-84.55
X149.105Y-98.4
X151.645Y-84.55
X151.645Y-98.4
X154.185Y-84.55
X154.185Y-98.4
X156.725Y-84.55
X156.725Y-98.4
X159.265Y-84.55
X159.265Y-98.4
X161.805Y-84.55
X161.805Y-98.4
X164.345Y-84.55
X164.345Y-98.4
X166.885Y-84.55
X166.885Y-98.4
T0
M30
