%FSLAX45Y45*%
G04 Gerber Fmt 4.5, Leading zero omitted, Abs format (unit mm)*
G04 Created by KiCad (PCBNEW (6.0.0)) date 2022-11-09 00:21:32*
%MOMM*%
%LPD*%
G01*
G04 APERTURE LIST*
%TA.AperFunction,Profile*%
%ADD10C,0.100000*%
%TD*%
%ADD11C,0.200000*%
G04 APERTURE END LIST*
D10*
X13558000Y-10246000D02*
X13558000Y-10046000D01*
X16867000Y-8255000D02*
X16867000Y-10246000D01*
X16517000Y-10246000D02*
X16517000Y-10046000D01*
X13208000Y-8255000D02*
X16867000Y-8255000D01*
X16517000Y-10046000D02*
X13558000Y-10046000D01*
X13208000Y-8255000D02*
X13208000Y-10246000D01*
X16867000Y-10246000D02*
X16517000Y-10246000D01*
X13558000Y-10246000D02*
X13208000Y-10246000D01*
D11*
X13460619Y-10561476D02*
X13460619Y-10361476D01*
X13508238Y-10361476D01*
X13536809Y-10371000D01*
X13555857Y-10390048D01*
X13565381Y-10409095D01*
X13574905Y-10447190D01*
X13574905Y-10475762D01*
X13565381Y-10513857D01*
X13555857Y-10532905D01*
X13536809Y-10551952D01*
X13508238Y-10561476D01*
X13460619Y-10561476D01*
X13660619Y-10561476D02*
X13660619Y-10428143D01*
X13660619Y-10466238D02*
X13670143Y-10447190D01*
X13679667Y-10437667D01*
X13698714Y-10428143D01*
X13717762Y-10428143D01*
X13784428Y-10561476D02*
X13784428Y-10428143D01*
X13784428Y-10361476D02*
X13774905Y-10371000D01*
X13784428Y-10380524D01*
X13793952Y-10371000D01*
X13784428Y-10361476D01*
X13784428Y-10380524D01*
X13908238Y-10561476D02*
X13889190Y-10551952D01*
X13879667Y-10532905D01*
X13879667Y-10361476D01*
X14013000Y-10561476D02*
X13993952Y-10551952D01*
X13984428Y-10532905D01*
X13984428Y-10361476D01*
X14241571Y-10561476D02*
X14241571Y-10361476D01*
X14308238Y-10504333D01*
X14374905Y-10361476D01*
X14374905Y-10561476D01*
X14555857Y-10561476D02*
X14555857Y-10456714D01*
X14546333Y-10437667D01*
X14527286Y-10428143D01*
X14489190Y-10428143D01*
X14470143Y-10437667D01*
X14555857Y-10551952D02*
X14536809Y-10561476D01*
X14489190Y-10561476D01*
X14470143Y-10551952D01*
X14460619Y-10532905D01*
X14460619Y-10513857D01*
X14470143Y-10494810D01*
X14489190Y-10485286D01*
X14536809Y-10485286D01*
X14555857Y-10475762D01*
X14651095Y-10428143D02*
X14651095Y-10628143D01*
X14651095Y-10437667D02*
X14670143Y-10428143D01*
X14708238Y-10428143D01*
X14727286Y-10437667D01*
X14736809Y-10447190D01*
X14746333Y-10466238D01*
X14746333Y-10523381D01*
X14736809Y-10542429D01*
X14727286Y-10551952D01*
X14708238Y-10561476D01*
X14670143Y-10561476D01*
X14651095Y-10551952D01*
X14832048Y-10542429D02*
X14841571Y-10551952D01*
X14832048Y-10561476D01*
X14822524Y-10551952D01*
X14832048Y-10542429D01*
X14832048Y-10561476D01*
X14832048Y-10437667D02*
X14841571Y-10447190D01*
X14832048Y-10456714D01*
X14822524Y-10447190D01*
X14832048Y-10437667D01*
X14832048Y-10456714D01*
M02*
