G04 #@! TF.GenerationSoftware,KiCad,Pcbnew,(6.0.0)*
G04 #@! TF.CreationDate,2022-11-09T00:21:30-05:00*
G04 #@! TF.ProjectId,0603 display board,30363033-2064-4697-9370-6c617920626f,rev?*
G04 #@! TF.SameCoordinates,Original*
G04 #@! TF.FileFunction,Paste,Top*
G04 #@! TF.FilePolarity,Positive*
%FSLAX46Y46*%
G04 Gerber Fmt 4.6, Leading zero omitted, Abs format (unit mm)*
G04 Created by KiCad (PCBNEW (6.0.0)) date 2022-11-09 00:21:30*
%MOMM*%
%LPD*%
G01*
G04 APERTURE LIST*
G04 Aperture macros list*
%AMRoundRect*
0 Rectangle with rounded corners*
0 $1 Rounding radius*
0 $2 $3 $4 $5 $6 $7 $8 $9 X,Y pos of 4 corners*
0 Add a 4 corners polygon primitive as box body*
4,1,4,$2,$3,$4,$5,$6,$7,$8,$9,$2,$3,0*
0 Add four circle primitives for the rounded corners*
1,1,$1+$1,$2,$3*
1,1,$1+$1,$4,$5*
1,1,$1+$1,$6,$7*
1,1,$1+$1,$8,$9*
0 Add four rect primitives between the rounded corners*
20,1,$1+$1,$2,$3,$4,$5,0*
20,1,$1+$1,$4,$5,$6,$7,0*
20,1,$1+$1,$6,$7,$8,$9,0*
20,1,$1+$1,$8,$9,$2,$3,0*%
G04 Aperture macros list end*
%ADD10RoundRect,0.125000X0.275000X-0.125000X0.275000X0.125000X-0.275000X0.125000X-0.275000X-0.125000X0*%
%ADD11RoundRect,0.125000X0.125000X0.275000X-0.125000X0.275000X-0.125000X-0.275000X0.125000X-0.275000X0*%
G04 APERTURE END LIST*
D10*
X148844000Y-90957500D03*
X148844000Y-89382500D03*
D11*
X141122500Y-94615000D03*
X139547500Y-94615000D03*
X156362500Y-88900000D03*
X154787500Y-88900000D03*
X166522500Y-94615000D03*
X164947500Y-94615000D03*
X151282500Y-91440000D03*
X149707500Y-91440000D03*
D10*
X157226000Y-88417500D03*
X157226000Y-86842500D03*
D11*
X136042500Y-94615000D03*
X134467500Y-94615000D03*
D10*
X148844000Y-88417500D03*
X148844000Y-86842500D03*
D11*
X136042500Y-91440000D03*
X134467500Y-91440000D03*
D10*
X136906000Y-90957500D03*
X136906000Y-89382500D03*
D11*
X166522500Y-91440000D03*
X164947500Y-91440000D03*
D10*
X147066000Y-88417500D03*
X147066000Y-86842500D03*
D11*
X156362500Y-94615000D03*
X154787500Y-94615000D03*
D10*
X143764000Y-88417500D03*
X143764000Y-86842500D03*
D11*
X166522500Y-86360000D03*
X164947500Y-86360000D03*
X146202500Y-91440000D03*
X144627500Y-91440000D03*
X151282500Y-88900000D03*
X149707500Y-88900000D03*
D10*
X159004000Y-88417500D03*
X159004000Y-86842500D03*
X133604000Y-90957500D03*
X133604000Y-89382500D03*
D11*
X136042500Y-88900000D03*
X134467500Y-88900000D03*
X146202500Y-94615000D03*
X144627500Y-94615000D03*
D10*
X162306000Y-90957500D03*
X162306000Y-89382500D03*
D11*
X151282500Y-86360000D03*
X149707500Y-86360000D03*
D10*
X152146000Y-90957500D03*
X152146000Y-89382500D03*
X143764000Y-90957500D03*
X143764000Y-89382500D03*
D11*
X146202500Y-86360000D03*
X144627500Y-86360000D03*
X161442500Y-94615000D03*
X159867500Y-94615000D03*
D10*
X138684000Y-90957500D03*
X138684000Y-89382500D03*
X164084000Y-88417500D03*
X164084000Y-86842500D03*
X153924000Y-88417500D03*
X153924000Y-86842500D03*
X167386000Y-88417500D03*
X167386000Y-86842500D03*
D11*
X156362500Y-91440000D03*
X154787500Y-91440000D03*
X151282500Y-94615000D03*
X149707500Y-94615000D03*
X141122500Y-86360000D03*
X139547500Y-86360000D03*
X136042500Y-86360000D03*
X134467500Y-86360000D03*
D10*
X157226000Y-90957500D03*
X157226000Y-89382500D03*
X133604000Y-88417500D03*
X133604000Y-86842500D03*
X167386000Y-90957500D03*
X167386000Y-89382500D03*
D11*
X141122500Y-88900000D03*
X139547500Y-88900000D03*
X161442500Y-91440000D03*
X159867500Y-91440000D03*
X146202500Y-88900000D03*
X144627500Y-88900000D03*
D10*
X152146000Y-88417500D03*
X152146000Y-86842500D03*
X162306000Y-88417500D03*
X162306000Y-86842500D03*
X159004000Y-90957500D03*
X159004000Y-89382500D03*
X141986000Y-90957500D03*
X141986000Y-89382500D03*
X147066000Y-90957500D03*
X147066000Y-89382500D03*
X141986000Y-88417500D03*
X141986000Y-86842500D03*
D11*
X161442500Y-88900000D03*
X159867500Y-88900000D03*
D10*
X136906000Y-88417500D03*
X136906000Y-86842500D03*
X164084000Y-90957500D03*
X164084000Y-89382500D03*
X138684000Y-88417500D03*
X138684000Y-86842500D03*
X153924000Y-90957500D03*
X153924000Y-89382500D03*
D11*
X161442500Y-86360000D03*
X159867500Y-86360000D03*
X166522500Y-88900000D03*
X164947500Y-88900000D03*
X156362500Y-86360000D03*
X154787500Y-86360000D03*
X141122500Y-91440000D03*
X139547500Y-91440000D03*
M02*
